<svg id="Layer_1" data-name="Layer 1" xmlns="http://www.w3.org/2000/svg" viewBox="0 0 320.51 815.69"><defs><style>.cls-1{fill:#0097d0;}.cls-2{fill:#fff;}</style></defs><path class="cls-1" d="M297.64,13.1c-88.51,0-160.26,28-160.26,62.5V668.54c0,88.36,71.89,160.25,160.26,160.25S457.89,756.9,457.89,668.54V75.6C457.89,41.08,386.14,13.1,297.64,13.1Zm0,18.75c61.95,0,112.17,19.59,112.17,43.75s-50.22,43.75-112.17,43.75S185.46,99.76,185.46,75.6,235.68,31.85,297.64,31.85ZM137.53,78.17c0-.18,0-.37-.05-.55C137.49,77.8,137.51,78,137.53,78.17Zm7.88,17-.2-.22Zm-1.64-2-.11-.14ZM142.28,91l-.12-.19Zm-1.18-2-.21-.38Zm-2-4.32c-.06-.16-.11-.32-.17-.47C139,84.38,139,84.54,139.08,84.7Zm-.69-2.12-.12-.39Zm-.57-2.37c0-.14,0-.28-.07-.42C137.78,79.93,137.79,80.07,137.82,80.21ZM149,99l.14.13ZM433.85,668.54A136.21,136.21,0,0,1,297.64,804.75h0A136.21,136.21,0,0,1,161.42,668.54v-560h0c28.27,17.75,78.7,29.57,136.22,29.57s107.94-11.82,136.21-29.57h0ZM156,104.86h0Zm290.1-5.7.14-.13Zm-6.85,5.71h0Zm18.49-26.7.06-.55Zm-7.87,17,.19-.22Zm1.64-2,.1-.14ZM453,91l.12-.19Zm1.17-2,.22-.38Zm2-4.32c.06-.16.12-.32.17-.47C456.31,84.38,456.25,84.54,456.19,84.7Zm.7-2.12c0-.13.08-.26.11-.39C457,82.32,456.93,82.45,456.89,82.58Zm.57-2.37.06-.42Z" transform="translate(-137.38 -13.1)"/><path class="cls-1" d="M339.3,349.23c-27.93,2-27.55,10.93-70.86,23.62a361,361,0,0,1-83,13.9V668.54a112.18,112.18,0,0,0,224.35,0V361.73C387.15,352.37,363,347.56,339.3,349.23Z" transform="translate(-137.38 -13.1)"/><circle class="cls-2" cx="106.3" cy="443.54" r="33.68"/><circle class="cls-2" cx="122.21" cy="586.49" r="33.93"/><circle class="cls-2" cx="164.92" cy="636.64" r="16.22"/><circle class="cls-2" cx="193.96" cy="673.54" r="11.47"/><circle class="cls-2" cx="155.36" cy="487.65" r="25.78"/><circle class="cls-2" cx="106.55" cy="513.43" r="15.66"/></svg>